<svg width="726" height="545" viewBox="0 0 726 545" fill="none" xmlns="http://www.w3.org/2000/svg">
<path d="M123.113 219.499C130.665 225.964 142.028 225.083 148.493 217.532L205.983 150.379C208.121 170.639 218.155 190.287 235.779 205.375C281.357 244.395 344.958 237.762 386.579 189.145C428.201 140.528 421.87 73.4999 371.125 30.0574C322.204 -11.8244 258.862 -9.18329 220.102 36.0916L100.18 176.17C93.7146 183.722 94.5955 195.085 102.147 201.55L123.113 219.499ZM338.266 147.784C317.715 171.788 286.783 175.321 264.297 156.071C242.116 137.081 240.839 105.974 261.389 81.9694C282.2 57.6607 313.132 54.128 335.314 73.1178C357.8 92.3678 359.076 123.475 338.266 147.784Z" fill="black"/>
<path d="M71.7 481.158C115.5 481.158 146.1 458.358 146.1 425.358C146.1 360.858 45.9 389.958 45.9 363.258C45.9 354.258 56.4 348.258 71.1 348.258C86.7 348.258 98.4 354.258 99.3 362.958H138V345.258C131.1 327.558 103.5 315.258 70.2 315.258C28.8 315.258 3.57628e-07 336.558 3.57628e-07 366.858C3.57628e-07 434.358 100.2 401.358 100.2 430.458C100.2 440.958 89.4 448.158 73.8 448.158C57.6 448.158 45 439.758 42.9 427.458H3.9V446.958C12 467.058 39.9 481.158 71.7 481.158ZM268.163 315.258C249.563 315.258 233.363 323.358 222.863 337.458V252.258H175.163V475.158H222.863V389.058C222.863 370.458 234.563 357.258 251.063 357.258C267.863 357.258 279.863 370.758 279.563 389.958V475.158H327.263V376.458C327.563 340.458 302.963 315.258 268.163 315.258ZM527.313 398.358C527.313 349.158 492.213 315.258 441.513 315.258C390.513 315.258 355.713 349.158 355.713 398.358C355.713 447.258 390.513 481.158 441.513 481.158C492.213 481.158 527.313 447.258 527.313 398.358ZM479.613 398.358C479.613 422.358 463.713 439.158 441.513 439.158C419.013 439.158 403.413 422.358 403.413 398.358C403.413 374.058 419.013 357.258 441.513 357.258C463.713 357.258 479.613 374.058 479.613 398.358ZM603.359 544.158V464.358C614.459 474.858 629.759 481.158 647.159 481.158C692.159 481.158 725.159 446.358 725.159 398.358C725.159 350.358 688.859 315.258 638.759 315.258C590.459 315.258 555.659 347.658 555.659 392.358V544.158H603.359ZM677.459 398.358C677.459 422.058 661.559 439.158 639.359 439.158C617.459 439.158 601.559 422.058 601.559 398.358C601.559 374.358 617.459 357.258 639.359 357.258C661.559 357.258 677.459 374.358 677.459 398.358Z" fill="black"/>
</svg>
